<svg class="logo h-10 w-auto md:h-12" fill="none" height="80" viewBox="0 0 189 80" width="189" xmlns="http://www.w3.org/2000/svg" xmlns:xlink="http://www.w3.org/1999/xlink"><linearGradient id="logoGrad" gradientUnits="userSpaceOnUse" x1="-15.2731" x2="191.894" y1="64.7226" y2="68.2767"><stop offset="0" stop-color="#00aeef"></stop><stop offset=".49858" stop-color="#8045b0"></stop><stop offset="1" stop-color="#e12991"></stop></linearGradient><path clip-rule="evenodd" d="m125.258 8.4632 2.313-6.82c-2.003-.5888-4.03-1.1408-6.036-1.6432l-2.338 6.8576c1.073.2608 2.009.496 2.89.7376zm-118.15978 36.1296c1.62805-.6986 3.38538-1.0451 5.15678-1.0168 5.2144 0 9.0528 2.16 11.4024 6.4232.1247.2205.2008.4652.2233.7175.0225.2524-.0092.5066-.0929.7457-.076.243-.2092.4642-.3883.6452-.1792.1809-.3991.3163-.6413.3948l-2.4056 1.06c-.3905.1759-.8325.2002-1.24.068-.415-.1217-.7651-.4027-.9736-.7816-1.2-2.052-3.12-3.0504-5.8776-3.0504-.6272-.0088-1.2527.0663-1.86.2232-.46578.1218-.9094.3164-1.31438.5768-.33.2306-.62992.5015-.8928.8064-.21873.2487-.40231.5262-.5456.8248-.12303.2721-.2226.5542-.2976.8432-.05308.1717-.08846.3483-.1056.5272v.2664c-.00052.4631.11219.9192.32832 1.3287.21612.4096.52911.76.91168 1.0209 1.55728 1.0348 3.21988 1.9015 4.95998 2.5856l1.3392.5832.1904.08c.2984.1304.6984.3048 1.192.5368.608.2848 1.0976.5392 1.4568.7568l1.2712.7936c.4704.2833.9107.6135 1.3144.9856.3096.2912.6632.64 1.0544 1.0296.3989.3877.7376.8329 1.0048 1.3208.2296.428.4592.8928.6944 1.3888.2465.5392.4215 1.1083.5208 1.6928.1045.629.1564 1.2656.1552 1.9032.0359 1.495-.2893 2.9766-.948 4.3192-.6587 1.3425-1.6316 2.5064-2.836 3.3928-2.1818 1.6271-4.8454 2.4773-7.5664 2.4152-1.8221.0179-3.63128-.3078-5.33278-.96l-.304-.156c-1.57047-.6733-2.97409-1.683-4.11183-2.9579-1.13775-1.2749-1.981921-2.7838-2.4729701-4.4205-.0900109-.3289-.0900109-.6759 0-1.0048.0814891-.3118.2476091-.5951.4800001-.8184.235722-.2357.53193-.4018.856-.48l2.5976-.5832c.42705-.0923.87303-.0286 1.2572.1795.38418.2081.68116.5468.8372.9549.9856 2.716 3.0136 4.0304 6.19998 4.0304.5422-.0016 1.0826-.0633 1.6112-.184.5841-.1346 1.1486-.3429 1.68-.62.5476-.2861 1.008-.7145 1.3328-1.24.3497-.5564.5285-1.203.5144-1.86.0084-.5155-.1079-1.0254-.3389-1.4864-.2311-.4609-.5702-.8591-.9883-1.1608-1.606-1.106-3.3352-2.0215-5.1528-2.728-.8496-.3536-1.51278-.6512-1.94718-.8616s-1.0544-.5208-1.86-.9304c-.67658-.3344-1.32555-.7221-1.9408-1.1592-.55606-.4318-1.09006-.8914-1.6-1.3768-.55351-.5205-1.02403-1.1227-1.3952-1.7856-.35295-.6473-.62768-1.3342-.8184-2.0464-.22516-.8073-.33796-1.6419-.3352-2.48.00414-1.1361.21421-2.262.62-3.3232.46024-1.1765 1.0866-2.2811 1.86-3.28.94402-1.1748 2.16896-2.0927 3.5616-2.6688zm54.06638.9176c-.1199-.3406-.3395-.6372-.6303-.8512s-.6392-.3356-1.0001-.3488l-2.6392 7.9456 5.7416 14.9984c.0181.0508.0236.1053.0161.1587-.0076.0535-.0279.1043-.0594.1482-.0314.0438-.073.0794-.1212.1037s-.1015.0366-.1555.0358h-10.5328l-2.0712 6.2h14.6224c.2056-.0001.4062.0629.5747.1805.1686.1176.2969.2842.3677.4771l1.308 3.5648c.1259.3391.3525.6317.6493.8384.2969.2068.6498.3179 1.0115.3184h2.8272c.2845-.0006.5647-.0697.8169-.2014.2522-.1318.4689-.3223.6319-.5555s.2674-.5023.3045-.7844c.037-.2821.0056-.5689-.0917-.8363zm66.0334-1.184h-8.897c-.24-.004-.478.0431-.699.1383-.221.0951-.419.2362-.581.4137-.325.3306-.508.776-.508 1.24v31.3856c-.004.2365.039.4715.128.6909s.22.4186.388.5859c.167.1673.366.2991.586.3876.219.0886.454.1319.69.1276h2.617c.356.0065.706-.0953 1.003-.2918.297-.1966.528-.4787.661-.809.089-.2195.132-.4546.128-.6912v-4.0928c-.003-.1254.02-.2502.069-.3656.049-.1155.123-.2189.216-.3032.087-.0868.191-.1556.304-.2024.114-.0468.236-.0708.359-.0704h3.324c2.791.0452 5.531-.7416 7.872-2.26 2.342-1.5185 4.178-3.6998 5.275-6.2659 1.097-2.566 1.404-5.4006.884-8.1423-.521-2.7417-1.846-5.2662-3.807-7.2518-1.288-1.3536-2.842-2.4271-4.564-3.1536-1.721-.7265-3.574-1.0903-5.443-1.0688zm5.772 19.9592c-.751.7655-1.65 1.3702-2.642 1.7774-.993.4073-2.057.6085-3.13.5914h-3.516c-.359-.0124-.701-.1607-.955-.4151-.254-.2543-.403-.5958-.415-.9553v-13.7344c-.005-.1836.029-.3661.101-.5352.071-.1691.179-.3208.314-.4448.126-.1247.275-.2234.439-.2904s.339-.101.516-.1h3.373c1.11-.0125 2.212.2009 3.237.6272s1.953 1.0567 2.727 1.8528c.797.756 1.427 1.671 1.848 2.6857s.624 2.1065.596 3.2047c-.018 1.0729-.248 2.1316-.676 3.1157-.427.9841-1.045 1.8742-1.817 2.6195zm-54.9846-.6944c-.0368.428-.1048 1.24-.1552 1.916-.0533.6293-.1165 1.4155-.1896 2.3584-.1813 2.2544-.4384 5.4152-.7712 9.4824-.0236.2467.0072.4957.0901.7292.0829.2336.216.4462.3899.6228.1655.1844.3684.3312.5952.4307.2269.0995.4724.1493.72.1461h2.64c.2282.0062.4554-.0331.6682-.1155.2129-.0824.4073-.2063.5718-.3645.163-.1512.2983-.3296.4-.5272.0973-.1935.1563-.4041.1736-.62.3846-4.1125.7648-8.2232 1.1408-12.332l-5.584-10.1176c-.1112 1.3192-.2304 2.8064-.3424 4.1944v.0136c-.1384 1.712-.264 3.2728-.3464 4.1824zm33.4836 6.3288v.0136.0224l.051.64.039.4944c.155 2.0704.32 4.148.508 6.2808.025.2234.002.4495-.068.6632-.079.2574-.22.4916-.41.6824-.164.1839-.366.3305-.591.43-.226.0995-.47.1495-.717.1468h-2.64c-.228.0068-.455-.0322-.668-.1146-.213-.0825-.407-.2067-.572-.3654-.331-.3044-.535-.7232-.571-1.172l-1.14-12.4 5.58-10.0696c.669 8.2336.669 8.4328.669 8.4328.203 2.18.366 4.264.528 6.3144zm-1.631-20.5336c0-.056-.267-3.3664-.273-3.416-.02-.2285-.085-.4507-.191-.6538-.107-.2032-.252-.3834-.429-.5302-.338-.3093-.781-.4779-1.24-.4712h-1.12c-.323-.0128-.644.0653-.926.2253-.281.1601-.512.3957-.667.6803l-10.5434 19.1072c0 .0128 0 .0216-.004.0256s-.0304 0-.0952-.0256l-10.5408-19.128c-.156-.283-.3877-.5169-.6692-.6757-.2814-.1588-.6015-.2362-.9244-.2235h-1.12c-.4605-.0103-.9064.1623-1.24.48-.1541.1444-.2821.3144-.3784.5024-.1048.2117-.1701.4408-.1928.676-.1984 2.1392-.1984 2.1392-.2784 3.4472v.124l5.58 9.976 8.2896 14.9c.1493.2872.3745.5279.6511.6959.2767.168.5941.2568.9177.2568.3237 0 .6411-.0888.9178-.2568.2766-.168.5018-.4087.651-.6959l8.2714-14.88 5.58-10.0072zm-58.4694-3.2872v2.6352c.0034.2382-.0404.4748-.1286.6961-.0883.2213-.2194.423-.3858.5935-.1577.1717-.3493.3089-.5628.4028-.2134.0939-.444.1425-.6772.1428h-6.6776c-.1261-.0053-.252.0156-.3696.0615-.1177.0459-.2245.1158-.3137.2051-.0892.0894-.1589.1963-.2046.314s-.0664.2437-.0609.3698v25.984c.0054.2399-.0404.4782-.1345.6989-.0941.2208-.2343.4189-.4111.5811-.3311.3242-.7766.5047-1.24.5024h-2.6352c-.2355.0035-.4693-.0404-.6875-.129-.2183-.0885-.4165-.22-.5831-.3866-.1665-.1666-.2978-.3649-.3863-.5832s-.1322-.4521-.1287-.6876v-25.988c.0043-.1256-.019-.2507-.0682-.3663-.0492-.1157-.1231-.2192-.2166-.3033-.1736-.1763-.4101-.2767-.6576-.2792h-6.6472c-.2399.0054-.4781-.0405-.6989-.1346-.2207-.0941-.4188-.2342-.5811-.411-.3252-.3304-.5059-.7764-.5024-1.24v-2.6848c-.0011-.4644.1819-.9102.5088-1.24.1628-.1761.361-.3158.5816-.4098.2206-.0941.4587-.1403.6984-.1358h21.4168c.2355.0012.4683.0508.6838.1458.2155.0949.4092.2332.569.4062.3224.3322.5021.7772.5008 1.24zm114.3524 26.984h-12.826c-.156-.0029-.308-.048-.441-.1304-.152-.0927-.279-.2202-.372-.372-.088-.148-.133-.3175-.13-.4896v-25.9736c.002-.3175-.074-.6307-.223-.9112-.152-.2781-.38-.5064-.658-.6576-.28-.1511-.593-.2279-.911-.2232h-2.635c-.464.0025-.909.1846-1.241.508-.176.1632-.315.3615-.409.582s-.141.4583-.137.698v31.3352c-.003.2414.043.4809.136.7037.092.2229.23.4242.404.5915.16.1694.352.3046.565.3974s.443.1413.675.1426h18.209c.24.0039.478-.0427.698-.1367.221-.094.419-.2333.582-.4089.327-.3493.507-.8111.502-1.2896v-2.5736c.005-.2365-.039-.4715-.127-.6909-.089-.2193-.22-.4186-.388-.5859-.167-.1673-.366-.2991-.586-.3876-.219-.0886-.454-.1319-.691-.1276zm7.094-28.7696h2.666c.354.0075.698.1164.991.3137.294.1972.524.4746.665.7991.088.2132.132.4421.13.6728v31.4048c.004.2355-.04.4693-.129.6876-.088.2183-.219.4166-.386.5832-.166.1666-.365.2981-.583.3866-.218.0886-.452.1325-.688.129h-2.666c-.23.0016-.458-.0426-.671-.13-.213-.0873-.406-.2161-.569-.3788-.177-.162-.317-.3601-.411-.5809-.095-.2208-.14-.4592-.135-.6991v-31.4024c-.003-.2397.043-.4775.137-.698s.233-.4188.409-.582c.331-.3242.777-.5057 1.24-.5056zm-84.1712-24.5672c.4568.6837.6526 1.5087.5519 2.3246-.1007.816-.4912 1.5687-1.1004 2.1208s-1.3966.8669-2.2185.8871c-.8219.0201-1.6237-.2557-2.2593-.7773-.6355-.5216-1.0625-1.2542-1.2031-2.0643-.1405-.81.0146-1.6436.4373-2.3489.4226-.7052 1.0846-1.235 1.8653-1.493.7807-.2579 1.628-.2268 2.3876.0878.6267.2596 1.1624.6992 1.5392 1.2632zm17.6592 1.8984c.001-.7948-.273-1.5655-.776-2.1807-.504-.6151-1.205-1.0366-1.984-1.1927-.78-.156-1.589-.0369-2.29.3371-.702.374-1.252.9797-1.5563 1.7138-.3047.7341-.3454 1.5511-.1151 2.3119.2303.7607.7174 1.418 1.3784 1.8598.66.4418 1.454.6407 2.245.5629s1.53-.4276 2.092-.9897c.643-.6421 1.005-1.5131 1.006-2.4216zm14.689-11.1648 3.2.88-6.511 19.1592c-.757 1.4704-1.841 2.7482-3.168 3.7358s-2.862 1.6589-4.488 1.9626c-3.262.6696-9.741.992-14.6028 1.1408l-1.0912.0312h-1.0544c-4.8984-.1552-11.4208-.4712-14.676-1.1408-1.6252-.3036-3.1597-.9741-4.4866-1.9605s-2.4112-2.2626-3.1702-3.7315l-.1304-.32-9.4624-27.732c1.972-.6016 4-1.1592 6.0392-1.6616l9.2504 27.1016.056.1176c.3646.5334.8312.9894 1.3729 1.3416.5416.3521 1.1477.5936 1.7831.7104 2.1704.4464 7.1056.812 13.5472 1.0104h1.7544c6.5048-.2048 11.4708-.5768 13.6408-1.0232.64-.1148 1.251-.3583 1.794-.7158.544-.3575 1.009-.8216 1.368-1.3642l4.192-12.3384-.62-.1304c-6.67-1.4867-13.467-2.3359-20.2988-2.536h-.9752l-1.86.0376c-6.0008.0032-16.7392 2.1456-16.7392 2.1456l-2.08-5.94s10.2488-2.4368 18.8184-2.4368l.8248-.0624h2.1696c8.6494.25006 17.2404 1.49806 25.6034 3.7192zm67.062 35.7512c-.326-.5945-.817-1.0829-1.413-1.4072-.574-.3213-1.221-.49-1.88-.49-.658 0-1.305.1687-1.88.49-.596.3242-1.086.8126-1.413 1.4072-.333.5803-.508 1.2375-.508 1.9064s.175 1.3261.508 1.9064c.325.5933.808 1.0849 1.396 1.42.576.3253 1.226.4962 1.888.4962.661 0 1.312-.1709 1.888-.4962.591-.3282 1.079-.8157 1.407-1.4072.329-.5784.502-1.2323.502-1.8976.01-.6758-.161-1.3418-.495-1.9296zm-.62 3.44c-.263.4759-.654.8688-1.129 1.1344-.464.2618-.988.3994-1.522.3994-.533 0-1.057-.1376-1.522-.3994-.476-.2654-.869-.6582-1.134-1.1344-.266-.4681-.405-.9977-.402-1.5361.002-.5384.145-1.0668.415-1.5327.264-.4759.657-.8673 1.134-1.1288.462-.2546.98-.3889 1.507-.3904.528-.0001 1.047.1343 1.508.3904.48.2594.876.6512 1.14 1.1288.276.4699.421 1.005.421 1.55s-.145 1.0801-.421 1.55zm-1.92-1.1096c.104.0953.195.2027.273.32.031.0368.13.1984.304.4896l.471.812h-1.011l-.341-.6512c-.134-.3115-.325-.5953-.564-.8368-.163-.1149-.36-.1736-.56-.1672h-.217v1.6616h-.819v-4.0408h2.127c.214.0144.425.0687.62.16.157.0962.287.2305.378.3904.1.1756.151.3747.149.5768.006.2776-.096.5465-.285.7504-.214.2168-.497.3528-.8.3848.098.0356.19.0857.274.1488zm-1.314-.676c.294.0143.59-.0045.88-.056.11-.0319.206-.0994.273-.192.067-.0891.103-.1986.1-.3104.002-.1078-.034-.213-.1-.2976-.068-.0924-.164-.1599-.273-.192-.291-.0508-.586-.0696-.88-.056h-.335v1.104z" fill="url(#logoGrad)" fill-rule="evenodd"></path></svg>